<svg xmlns="http://www.w3.org/2000/svg" width="792" height="367.481" viewBox="0 125.584 792 367.481"><path fill="#77CE56" stroke="#444" stroke-width="12" stroke-miterlimit="10" d="M295.805 255.434c.143 41.76-33.465 75.652-75.082 75.652-41.188 0-75.082-33.75-75.224-74.938-.144-41.76 33.179-75.654 74.938-75.796 41.76-.144 75.226 33.177 75.368 75.082zM110.943 483.216c-34.609 0-62.21-27.889-62.21-62.926 0-34.609 28.03-62.498 62.782-62.354 34.609.144 62.783 28.175 62.783 62.64.142 34.894-28.174 62.782-63.355 62.64z"/><path fill="#77CE56" stroke="#444" stroke-width="10" stroke-miterlimit="10" d="M22.592 179.239c.136-23.064 18.859-41.516 42.059-41.38 23.064.135 41.652 19.13 41.381 42.059-.271 23.064-19.537 42.059-42.059 41.518-23.201-.409-41.516-19.131-41.381-42.197z"/><path fill="#444" d="M42.305 256.236c-6.47-.151-11.886-5.719-11.585-12.188.301-6.168 5.567-11.435 11.736-11.435 6.47-.151 11.886 5.416 11.886 11.886-.001 6.621-5.417 11.887-12.037 11.737zm1.654 33.403c-6.771 0-11.886-5.115-11.886-11.736 0-6.168 5.116-11.436 11.435-11.586 6.62-.149 12.037 4.966 12.187 11.586 0 6.77-4.965 11.736-11.736 11.736zm169.267 83.203c-6.771-.15-11.736-5.417-11.435-12.037.151-6.62 5.567-11.436 12.338-11.283 6.47.301 11.134 5.266 11.134 11.734-.151 6.77-5.266 11.736-12.037 11.586zm-73.123-207.784c0 6.771-5.266 11.736-12.036 11.585-6.771-.15-11.586-5.266-11.285-12.188.301-6.47 4.965-11.134 11.585-11.134 6.771-.149 11.886 4.966 11.736 11.737zm52.51 209.438c6.771 0 12.037 5.115 11.886 11.736 0 6.619-5.266 11.734-12.037 11.585-6.47-.15-11.285-4.814-11.435-11.284-.15-6.77 4.966-12.037 11.586-12.037zM61.864 314.915c0 6.771-5.266 11.886-11.886 11.735-6.62-.149-11.585-5.566-11.435-12.338.151-6.169 5.417-11.436 11.585-11.436 6.621.002 11.736 5.419 11.736 12.039zm97.197-127.589c-6.921 0-11.585-4.664-11.585-11.735 0-6.921 4.965-11.736 11.736-11.585 6.469.15 11.133 4.965 11.284 11.435 0 7.07-4.515 11.885-11.435 11.885zm-91.63 146.096c6.47.15 11.435 5.717 11.134 12.487-.301 6.771-5.567 11.585-12.338 11.134-6.319-.3-10.983-5.566-10.833-12.036.151-6.62 5.567-11.736 12.037-11.585z"/><g fill="#444" stroke="#444" stroke-width="3" stroke-miterlimit="10"><path d="M435.1 189.228c0 1.575-.8 2.362-2.399 2.362H420.1v121.598c0 1.868-.928 2.803-2.781 2.803h-10.73c-1.325 0-2.319-.682-2.981-2.05l-46.272-98.966c-2.281-4.928-4.225-10.722-5.834-17.385 1.331 6.812 2 12.891 2 18.234v87.366h12.8c1.6 0 2.4.787 2.4 2.362v8.075c0 1.575-.8 2.362-2.4 2.362h-40c-1.6 0-2.4-.787-2.4-2.362v-8.075c0-1.575.8-2.362 2.4-2.362h12.6v-111.6h-12.6c-1.6 0-2.4-.787-2.4-2.362v-8.075c0-1.574.8-2.362 2.4-2.362h28c1.466 0 2.531.669 3.2 2l44.2 93.2c1.865 4 3.6 9.135 5.2 15.4-.935-5.613-1.4-10.957-1.4-16.031v-81.77h-12.6c-1.601 0-2.4-.787-2.4-2.362v-8.075c0-1.574.8-2.362 2.4-2.362h39.8c1.6 0 2.399.788 2.399 2.362v8.075zM523.5 267.79c0 2.4-.731 3.601-2.194 3.601H464.1c1.062 22.534 9.831 33.8 26.307 33.8 7.04 0 14.747-2.4 23.118-7.2.663-.4 1.328-.6 1.994-.6.531 0 .994.334 1.394 1l3.588 7.8c.266.534.399 1 .399 1.399 0 1.469-2.399 3.335-7.199 5.601-8 3.731-16.2 5.6-24.601 5.6-12.669 0-22.769-4.565-30.3-13.7-7.534-9.131-11.3-21.431-11.3-36.899 0-15.466 3.6-27.831 10.8-37.101 7.2-9.266 16.8-13.899 28.8-13.899 16.8 0 27.932 8 33.4 24 2 5.867 3 14.733 3 26.598zm-16.2-8.8c-.4-19.731-7.435-29.6-21.104-29.6-13.537 0-20.902 9.868-22.097 29.6H507.3zM622.1 267.391c0 16.134-3.6 28.734-10.8 37.8-7.2 9.068-17.269 13.6-30.2 13.6-12.134 0-21.6-4.431-28.399-13.3-6.801-8.865-10.2-21.231-10.2-37.1 0-16.132 3.6-28.7 10.8-37.7s17.266-13.5 30.2-13.5c12.131 0 21.6 4.435 28.399 13.3 6.8 8.868 10.2 21.168 10.2 36.9zm-16.201-.198c0-24.8-7.934-37.203-23.8-37.203-15.6 0-23.399 12.138-23.399 36.409 0 13.663 2.065 23.94 6.199 30.838 3.466 5.837 9.332 8.753 17.601 8.753 7.865 0 13.531-2.784 17-8.356 4.266-6.897 6.399-17.044 6.399-30.441zM728.5 284.834c0 1.838-.935 2.756-2.8 2.756h-15.8v28.4c0 1.865-.947 2.8-2.838 2.8h-9.524c-1.895 0-2.838-.935-2.838-2.8v-28.4h-51.01c-1.862 0-2.79-.931-2.79-2.8v-11.2l51.803-85.797c.666-1.068 1.4-1.603 2.2-1.603h1.2l9.997 1.584c1.6.266 2.399.859 2.399 1.784 0 .528-.297 1.122-.884 1.781l-51.085 83.45h38.359l2.21-32.384c.131-1.744 1.065-2.616 2.8-2.616h7.2c1.865 0 2.8.94 2.8 2.815v32.185h15.8c1.865 0 2.8.919 2.8 2.757v7.288zM773.5 326.59c0 10.531-2.2 18.2-6.601 23-5.334 5.866-12.734 8.801-22.2 8.801-4.8 0-10.1-.935-15.899-2.801-5.8-1.868-8.7-3.534-8.7-5 0-.534.135-1.068.396-1.6l3.781-8c.266-.8.797-1.2 1.591-1.2.135 0 .601.132 1.394.4 6.369 3.331 12.335 5 17.906 5 6.101 0 9.947-2.2 11.541-6.601 1.06-2.934 1.591-8.134 1.591-15.6v-90.6h-15.825c-1.45 0-2.175-.731-2.175-2.2v-7.8c0-1.601.731-2.4 2.2-2.4h28.8c1.466 0 2.2.8 2.2 2.4V326.59zm3.199-141.6c0 3.334-1.168 6.169-3.5 8.5-2.334 2.334-5.168 3.5-8.5 3.5-3.334 0-6.199-1.2-8.6-3.6-2.4-2.4-3.6-5.266-3.6-8.601 0-3.331 1.199-6.165 3.6-8.5 2.4-2.331 5.331-3.5 8.8-3.5 3.2 0 5.966 1.2 8.3 3.601 2.332 2.4 3.5 5.269 3.5 8.6z"/></g></svg>